<svg xmlns="http://www.w3.org/2000/svg" viewBox="0 0 64 64">
  <rect width="64" height="64" rx="12" fill="#F5F1EC"/>

  <!-- Small cloud top-left (flat) -->
  <path
          d="M16 27h12a3.5 3.5 0 0 0 0-7 5.5 5.5 0 0 0-10-1 3 3 0 0 0-2 8z"
          fill="none"
          stroke="#334155"
          stroke-width="1.3"
          stroke-linecap="round"
          stroke-linejoin="round"
  />

  <!-- Small cloud bottom-right (flat) -->
  <path
          d="M36 45h12a3.5 3.5 0 0 0 0-7 5.5 5.5 0 0 0-10-1 3 3 0 0 0-2 8z"
          fill="none"
          stroke="#334155"
          stroke-width="1.3"
          stroke-linecap="round"
          stroke-linejoin="round"
  />

  <!-- Main cloud (flattened + lower) -->
  <g transform="translate(4,8)">
    <path
            d="
        M22 38
        H42
        a8 8 0 0 0 0-16
        a12 12 0 0 0-22-2
        a7 7 0 0 0 2 18
        Z
      "
            fill="none"
            stroke="#334155"
            stroke-width="1.7"
            stroke-linecap="round"
            stroke-linejoin="round"
    />
  </g>
</svg>
